<svg width="309" height="73" viewBox="0 0 309 73" fill="none" xmlns="http://www.w3.org/2000/svg">
<path fill-rule="evenodd" clip-rule="evenodd" d="M36.5186 0.000193592C44.1449 0.00410483 51.5783 2.39663 57.775 6.84181C63.9718 11.287 68.6205 17.5615 71.0684 24.7842C73.5163 32.0069 73.6404 39.8149 71.4232 47.1117C69.206 54.4085 64.759 60.8275 58.7066 65.4674C52.6543 70.1072 45.3006 72.7347 37.6783 72.981C30.0561 73.2272 22.5482 71.0797 16.209 66.8402C9.86978 62.6006 5.01772 56.482 2.33426 49.3434C-0.349208 42.2049 -0.729288 34.4052 1.24737 27.0396H19.3461V38.0312C19.4528 42.639 21.3581 47.0222 24.6547 50.2433C27.9513 53.4645 32.3774 55.2679 36.9865 55.2679C41.5955 55.2679 46.0216 53.4645 49.3182 50.2433C52.6148 47.0222 54.5201 42.639 54.6268 38.0312V37.7287H43.9471V38.0312C43.8807 39.8329 43.1183 41.5386 41.8202 42.7898C40.5221 44.041 38.7894 44.74 36.9865 44.74C35.1835 44.74 33.4508 44.041 32.1527 42.7898C30.8546 41.5386 30.0922 39.8329 30.0258 38.0312V27.0396H41.0457L46.0642 16.3694H29.9974V0.576693C32.149 0.185968 34.3319 -0.00699386 36.5186 0.000193592Z" fill="#52227C"/>
<path fill-rule="evenodd" clip-rule="evenodd" d="M115.294 18.9146C115.272 18.7539 115.19 18.6076 115.064 18.5054C114.939 18.4032 114.78 18.3526 114.619 18.3639H102.649C102.492 18.3562 102.337 18.4088 102.217 18.5109C102.097 18.6131 102.019 18.7573 102 18.9146V22.0396C102.025 22.1922 102.105 22.3302 102.225 22.4271C102.344 22.524 102.495 22.573 102.649 22.5647H106.3V39.4063C106.325 39.5589 106.405 39.6969 106.524 39.7939C106.644 39.8908 106.795 39.9397 106.949 39.9314H110.32C110.477 39.9434 110.633 39.8964 110.757 39.7994C110.882 39.7024 110.966 39.5623 110.994 39.4063V22.5647H114.619C114.776 22.5767 114.932 22.5296 115.057 22.4326C115.181 22.3357 115.266 22.1956 115.294 22.0396V18.9146ZM127.544 39.624C127.611 39.7206 127.698 39.8015 127.799 39.8612C127.9 39.9209 128.013 39.9579 128.129 39.9698H131.806C132.302 39.9698 132.518 39.5984 132.366 39.227L130.496 35.1287C129.847 33.7711 129.134 32.2086 128.498 30.8126C129.66 30.4005 130.655 29.616 131.33 28.5794C132.006 27.5429 132.325 26.3116 132.238 25.0749C132.238 18.6712 126.132 18.6072 124.873 18.6072H118.156C118.081 18.6002 118.006 18.6083 117.935 18.6311C117.863 18.6539 117.797 18.6908 117.74 18.7398C117.683 18.7888 117.637 18.8487 117.603 18.9161C117.57 18.9836 117.55 19.0571 117.545 19.1323V39.4063C117.561 39.5557 117.634 39.6933 117.747 39.7909C117.861 39.8885 118.007 39.9388 118.156 39.9314H121.502C121.659 39.9464 121.817 39.9005 121.942 39.803C122.067 39.7055 122.151 39.5637 122.176 39.4063V31.4017H123.753L127.493 39.5856L127.544 39.624ZM122.227 22.9745H124.873C125.42 22.9745 127.608 23.1922 127.608 25.1774C127.608 27.1625 125.636 27.3418 124.873 27.3418H122.227V22.9745ZM146.486 39.624C146.535 39.7383 146.617 39.8349 146.721 39.9012C146.826 39.9675 146.948 40.0004 147.071 39.9954H150.722C150.814 40.0077 150.907 39.9952 150.992 39.9593C151.078 39.9234 151.152 39.8654 151.207 39.7912C151.263 39.7169 151.298 39.6291 151.309 39.5367C151.32 39.4443 151.306 39.3507 151.269 39.2654L143.23 18.3511C143.17 18.2445 143.083 18.1559 142.978 18.0942C142.873 18.0325 142.753 18 142.632 18C142.51 18 142.391 18.0325 142.286 18.0942C142.181 18.1559 142.094 18.2445 142.034 18.3511C139.426 25.1261 136.602 32.516 133.994 39.2654C133.841 39.624 133.994 39.9954 134.566 39.9954H138.192C138.321 40.0029 138.449 39.9716 138.56 39.9054C138.671 39.8393 138.76 39.7413 138.815 39.624L139.579 37.5108H145.659L146.486 39.624ZM141.881 30.5949C142.202 29.6229 142.457 28.6302 142.644 27.6235C142.83 28.6281 143.077 29.6204 143.382 30.5949L144.425 33.8095H140.8L141.881 30.5949ZM154.195 18.5944C154.041 18.5799 153.886 18.6266 153.765 18.7246C153.644 18.8226 153.566 18.9643 153.546 19.1195V39.4575C153.571 39.6102 153.651 39.7482 153.771 39.8451C153.891 39.942 154.042 39.991 154.195 39.9826H157.592C162.833 39.9826 169.931 38.2792 169.931 29.2245C169.931 19.7983 162.718 18.5944 157.592 18.5944H154.195ZM158.177 22.8336C158.363 22.8143 158.551 22.8143 158.737 22.8336C162.553 22.8336 165.237 24.3449 165.237 29.2373C165.237 35.0518 160.632 35.769 158.177 35.705V22.8976V22.8336ZM187.83 22.9489C187.988 22.9671 188.147 22.9225 188.273 22.8244C188.399 22.7263 188.482 22.5825 188.504 22.4238V19.1195C188.482 18.9608 188.399 18.817 188.273 18.7189C188.147 18.6208 187.988 18.5761 187.83 18.5944H174.486C174.41 18.5874 174.335 18.5954 174.262 18.618C174.19 18.6406 174.123 18.6774 174.065 18.7262C174.007 18.775 173.96 18.8349 173.925 18.9024C173.89 18.9699 173.869 19.0437 173.862 19.1195V39.4575C173.881 39.608 173.956 39.7457 174.072 39.8431C174.187 39.9405 174.335 39.9903 174.486 39.9826H187.83C187.988 39.9977 188.145 39.9518 188.27 39.8542C188.396 39.7567 188.479 39.6149 188.504 39.4575V36.1789C188.482 36.0201 188.399 35.8763 188.273 35.7782C188.147 35.6801 187.988 35.6355 187.83 35.6538H178.467V31.4914H186.176C186.252 31.4966 186.327 31.4868 186.399 31.4626C186.47 31.4383 186.536 31.4001 186.593 31.3501C186.65 31.3001 186.696 31.2394 186.729 31.1713C186.763 31.1032 186.782 31.0292 186.787 30.9535V27.7132C186.784 27.6373 186.766 27.5629 186.733 27.4946C186.7 27.4263 186.653 27.3656 186.596 27.3163C186.538 27.267 186.472 27.2301 186.399 27.2081C186.327 27.186 186.251 27.1792 186.176 27.1881H178.467V22.9489H187.83ZM289.269 19.1067C289.261 19.0291 289.238 18.954 289.201 18.8855C289.164 18.817 289.114 18.7566 289.054 18.7077C288.994 18.6589 288.924 18.6226 288.85 18.6009C288.775 18.5793 288.698 18.5727 288.621 18.5816H285.237C285.12 18.5884 285.005 18.6192 284.9 18.6721C284.795 18.7249 284.702 18.7987 284.626 18.889L277.935 33.4893L270.9 18.9146C270.831 18.8266 270.744 18.7539 270.645 18.701C270.547 18.6481 270.439 18.6162 270.327 18.6072H266.918C266.763 18.5927 266.609 18.6394 266.488 18.7374C266.367 18.8354 266.289 18.9771 266.269 19.1323V39.4063C266.294 39.5589 266.374 39.6969 266.494 39.7939C266.614 39.8908 266.765 39.9397 266.918 39.9314H270.264C270.417 39.9457 270.57 39.8986 270.689 39.8003C270.808 39.7021 270.884 39.5605 270.9 39.4063V28.9043L275.823 38.7787C275.876 38.8795 275.955 38.9643 276.051 39.025C276.147 39.0857 276.257 39.12 276.37 39.1245H279.538C279.652 39.1101 279.762 39.0719 279.86 39.0124C279.959 38.9529 280.044 38.8733 280.11 38.7787L284.626 29.2757V39.4063C284.654 39.5623 284.738 39.7024 284.863 39.7994C284.988 39.8964 285.143 39.9434 285.3 39.9314H288.621C288.775 39.9427 288.927 39.8948 289.048 39.7974C289.168 39.6999 289.247 39.5602 289.269 39.4063V19.1323V19.1067ZM308.262 22.9489C308.42 22.9671 308.579 22.9225 308.705 22.8244C308.831 22.7263 308.914 22.5825 308.936 22.4238V19.1195C308.914 18.9608 308.831 18.817 308.705 18.7189C308.579 18.6208 308.42 18.5761 308.262 18.5944H294.981C294.906 18.5874 294.83 18.5954 294.758 18.618C294.686 18.6406 294.619 18.6774 294.561 18.7262C294.503 18.775 294.455 18.8349 294.42 18.9024C294.385 18.9699 294.364 19.0437 294.358 19.1195V39.4575C294.377 39.608 294.452 39.7457 294.567 39.8431C294.683 39.9405 294.831 39.9903 294.981 39.9826H308.326C308.483 39.9977 308.641 39.9518 308.766 39.8542C308.891 39.7567 308.975 39.6149 309 39.4575V36.1789C308.978 36.0201 308.895 35.8763 308.769 35.7782C308.643 35.6801 308.484 35.6355 308.326 35.6538H298.963V31.4914H306.672C306.747 31.4966 306.823 31.4868 306.894 31.4626C306.966 31.4383 307.032 31.4001 307.088 31.3501C307.145 31.3001 307.191 31.2394 307.225 31.1713C307.258 31.1032 307.278 31.0292 307.283 30.9535V27.7132C307.28 27.6373 307.261 27.5629 307.228 27.4946C307.195 27.4263 307.149 27.3656 307.091 27.3163C307.034 27.267 306.967 27.2301 306.895 27.2081C306.823 27.186 306.747 27.1792 306.672 27.1881H298.963V22.9489H308.262Z" fill="#6E7DA4"/>
<path fill-rule="evenodd" clip-rule="evenodd" d="M219.577 19.7742C219.73 19.382 219.577 19.0405 219.019 19.0405H215.416C215.296 19.0367 215.178 19.0668 215.075 19.1272C214.971 19.1877 214.887 19.276 214.832 19.382L211.026 29.9064C209.758 26.1115 208.552 23.1389 207.22 19.382C207.168 19.2739 207.084 19.1838 206.98 19.123C206.877 19.0622 206.757 19.0335 206.637 19.0405H202.932C202.816 19.0303 202.7 19.0581 202.602 19.1198C202.503 19.1814 202.428 19.2735 202.387 19.382L198.581 29.9064C197.236 26.1115 196.132 23.1389 194.774 19.382C194.774 19.1923 194.47 19.0405 194.191 19.0405H190.6C190.508 19.0336 190.416 19.0494 190.332 19.0867C190.247 19.124 190.174 19.1816 190.117 19.2543C190.061 19.327 190.023 19.4125 190.008 19.5032C189.992 19.594 190 19.687 190.03 19.7742L197.959 40.6205C198.012 40.733 198.097 40.8282 198.202 40.8948C198.308 40.9614 198.43 40.9968 198.555 40.9968C198.68 40.9968 198.802 40.9614 198.908 40.8948C199.014 40.8282 199.098 40.733 199.151 40.6205C200.978 35.6492 202.957 30.6401 204.784 25.6056L210.481 40.6205C210.526 40.7326 210.604 40.8286 210.705 40.8963C210.806 40.9639 210.924 41 211.045 41C211.167 41 211.285 40.9639 211.386 40.8963C211.486 40.8286 211.564 40.7326 211.61 40.6205L219.603 19.7742H219.577ZM222.292 39.5832C222.317 39.7339 222.397 39.8703 222.516 39.966C222.636 40.0617 222.786 40.1101 222.939 40.1018H226.276C226.429 40.116 226.581 40.0695 226.7 39.9724C226.819 39.8753 226.894 39.7355 226.91 39.5832V19.5591C226.904 19.4831 226.882 19.4091 226.847 19.3415C226.811 19.2739 226.763 19.2142 226.703 19.1658C226.644 19.1174 226.576 19.0814 226.502 19.0599C226.429 19.0384 226.352 19.0318 226.276 19.0405H222.939C222.785 19.0262 222.631 19.0723 222.51 19.1691C222.39 19.2659 222.311 19.4058 222.292 19.5591V39.5832ZM242.16 19.7109C242.155 19.6317 242.135 19.5541 242.099 19.4829C242.064 19.4118 242.015 19.3484 241.954 19.2965C241.894 19.2446 241.824 19.2053 241.748 19.1809C241.672 19.1565 241.592 19.1474 241.513 19.1544H229.828C229.67 19.1471 229.514 19.2007 229.394 19.3042C229.273 19.4077 229.197 19.5533 229.181 19.7109V22.7595C229.181 23.0377 229.46 23.2528 229.828 23.2528H233.406V39.5832C233.409 39.6581 233.428 39.7316 233.46 39.7991C233.493 39.8666 233.54 39.9265 233.597 39.9752C233.654 40.0239 233.721 40.0603 233.793 40.0821C233.865 40.1039 233.94 40.1106 234.015 40.1018H237.339C237.413 40.1087 237.488 40.1007 237.559 40.0782C237.631 40.0557 237.697 40.0192 237.753 39.9708C237.81 39.9225 237.857 39.8633 237.89 39.7967C237.923 39.7301 237.943 39.6575 237.948 39.5832V23.2907H241.5C241.906 23.2907 242.147 23.0757 242.147 22.7974V19.7489L242.16 19.7109ZM257.042 19.0026C256.887 18.9882 256.734 19.0343 256.613 19.1312C256.492 19.228 256.414 19.3679 256.395 19.5212V27.25H249.392V19.5212C249.372 19.3679 249.294 19.228 249.173 19.1312C249.053 19.0343 248.899 18.9882 248.744 19.0026H245.408C245.254 18.9882 245.1 19.0343 244.979 19.1312C244.858 19.228 244.78 19.3679 244.761 19.5212V39.5832C244.786 39.7339 244.865 39.8703 244.985 39.966C245.104 40.0617 245.255 40.1101 245.408 40.1018H248.757C248.91 40.1101 249.061 40.0617 249.18 39.966C249.3 39.8703 249.379 39.7339 249.404 39.5832V31.5508H256.369V39.5832C256.394 39.7339 256.474 39.8703 256.593 39.966C256.713 40.0617 256.863 40.1101 257.016 40.1018H260.378C260.528 40.1065 260.674 40.0562 260.788 39.9606C260.903 39.865 260.978 39.7306 261 39.5832V19.5591C260.981 19.4105 260.906 19.2744 260.791 19.1783C260.676 19.0821 260.528 19.0329 260.378 19.0405L257.042 19.0026Z" fill="#472678"/>
<path fill-rule="evenodd" clip-rule="evenodd" d="M107.812 57.9356C108.171 57.9581 108.53 57.9072 108.869 57.7862C109.207 57.6652 109.516 57.4766 109.777 57.2321C110.038 56.9877 110.246 56.6927 110.387 56.3654C110.528 56.0381 110.6 55.6855 110.597 55.3297C110.609 54.8396 110.475 54.357 110.213 53.9411C109.951 53.5251 109.572 53.1939 109.122 52.9882C108.72 52.8158 108.288 52.7218 107.85 52.7112C107.729 52.7164 107.608 52.697 107.495 52.6542C107.381 52.6114 107.278 52.5462 107.191 52.4625C107.104 52.3788 107.036 52.2784 106.989 52.1675C106.943 52.0566 106.92 51.9375 106.922 51.8174C106.912 51.6943 106.93 51.5707 106.973 51.4549C107.016 51.3391 107.084 51.2339 107.173 51.1467C107.261 51.0594 107.367 50.992 107.484 50.9491C107.601 50.9063 107.726 50.889 107.85 50.8984C107.96 50.8899 108.07 50.9031 108.175 50.9372C108.279 50.9713 108.375 51.0257 108.458 51.0972C108.541 51.1688 108.609 51.2559 108.657 51.3536C108.706 51.4514 108.734 51.5577 108.741 51.6663C108.75 51.7286 108.783 51.7851 108.832 51.8247C108.881 51.8643 108.944 51.8842 109.008 51.8804H110.356C110.387 51.8838 110.418 51.881 110.448 51.8719C110.478 51.8629 110.506 51.8479 110.53 51.8278C110.554 51.8078 110.573 51.7831 110.587 51.7553C110.601 51.7276 110.609 51.6973 110.61 51.6663C110.611 51.3169 110.539 50.971 110.398 50.6507C110.257 50.3304 110.05 50.0427 109.79 49.8059C109.531 49.569 109.224 49.3883 108.89 49.2751C108.556 49.162 108.202 49.1189 107.85 49.1486C107.487 49.1333 107.124 49.191 106.783 49.3183C106.443 49.4455 106.132 49.6397 105.869 49.889C105.607 50.1384 105.398 50.4378 105.255 50.7692C105.112 51.1006 105.039 51.4572 105.039 51.8174C105.033 52.3033 105.169 52.7804 105.431 53.1915C105.693 53.6025 106.069 53.9297 106.515 54.1338C106.92 54.332 107.361 54.4476 107.812 54.4737C108.049 54.4911 108.272 54.5922 108.44 54.7586C108.608 54.9249 108.71 55.1455 108.728 55.3801C108.725 55.4942 108.698 55.6065 108.65 55.7102C108.602 55.8139 108.533 55.9068 108.447 55.9833C108.361 56.0598 108.261 56.1183 108.152 56.1553C108.043 56.1923 107.927 56.2069 107.812 56.1983C107.697 56.2124 107.581 56.2026 107.47 56.1694C107.36 56.1363 107.257 56.0805 107.17 56.0058C107.082 55.931 107.012 55.839 106.962 55.7355C106.913 55.6321 106.886 55.5196 106.884 55.4052C106.884 55.2919 106.744 55.2164 106.616 55.2164H105.268C105.103 55.2164 105.001 55.2919 105.001 55.4052C104.99 55.7646 105.057 56.1221 105.197 56.4538C105.337 56.7855 105.548 57.0836 105.814 57.3281C106.08 57.5726 106.396 57.7578 106.741 57.8713C107.086 57.9848 107.451 58.0239 107.812 57.986V57.9356ZM114.426 57.5831C114.435 57.6431 114.466 57.6979 114.513 57.7372C114.559 57.7765 114.619 57.7978 114.68 57.7971H116.041C116.073 57.8006 116.105 57.7978 116.136 57.7889C116.166 57.78 116.195 57.7652 116.22 57.7453C116.245 57.7254 116.265 57.7008 116.28 57.673C116.296 57.6451 116.305 57.6146 116.308 57.5831V49.4381C116.308 49.3374 116.206 49.2367 116.041 49.2367H114.68C114.62 49.2328 114.561 49.2513 114.514 49.2886C114.466 49.3259 114.435 49.3792 114.426 49.4381V57.5579V57.5831ZM124.359 52.749C124.294 52.7454 124.229 52.767 124.18 52.8092C124.13 52.8514 124.098 52.911 124.092 52.9756V54.1715C124.101 54.2338 124.134 54.2903 124.184 54.3299C124.233 54.3696 124.296 54.3894 124.359 54.3855H126.305V55.3549C126.071 55.6011 125.79 55.7982 125.477 55.9345C125.165 56.0708 124.828 56.1434 124.486 56.148C124.141 56.1696 123.795 56.1152 123.474 55.9886C123.152 55.8621 122.863 55.6666 122.627 55.4162C122.391 55.1657 122.214 54.8666 122.109 54.5404C122.004 54.2142 121.973 53.8689 122.019 53.5295C121.991 53.1928 122.034 52.854 122.145 52.5347C122.256 52.2154 122.434 51.9226 122.666 51.6751C122.898 51.4275 123.18 51.2305 123.493 51.0968C123.807 50.9631 124.145 50.8955 124.486 50.8984C125.148 50.9144 125.778 51.1854 126.242 51.6538C126.289 51.6905 126.347 51.7105 126.407 51.7105C126.467 51.7105 126.525 51.6905 126.572 51.6538L127.539 50.7096C127.576 50.663 127.596 50.6053 127.596 50.5459C127.596 50.4866 127.576 50.4289 127.539 50.3823C126.715 49.5854 125.613 49.1344 124.461 49.1234C123.88 49.1164 123.303 49.2258 122.765 49.445C122.228 49.6643 121.741 49.9889 121.333 50.3993C120.925 50.8097 120.606 51.2975 120.394 51.8333C120.182 52.369 120.081 52.9417 120.098 53.5169C120.046 54.086 120.116 54.6597 120.304 55.2C120.492 55.7403 120.794 56.235 121.189 56.6514C121.585 57.0678 122.065 57.3965 122.598 57.6156C123.132 57.8348 123.706 57.9396 124.283 57.923C125.056 57.9605 125.813 57.6987 126.394 57.1929C126.394 57.4195 126.394 57.3691 126.394 57.6209C126.394 57.8726 126.496 57.8223 126.649 57.8223H127.844C127.908 57.8261 127.97 57.8063 128.02 57.7667C128.069 57.7271 128.102 57.6705 128.111 57.6083V52.963C128.105 52.8984 128.073 52.8388 128.024 52.7966C127.974 52.7544 127.91 52.7328 127.844 52.7364L124.359 52.749ZM139.685 49.4381C139.682 49.4066 139.673 49.3761 139.657 49.3483C139.642 49.3204 139.622 49.2958 139.597 49.2759C139.572 49.256 139.543 49.2412 139.513 49.2323C139.482 49.2234 139.45 49.2206 139.418 49.2241H138.07C138.038 49.2206 138.006 49.2234 137.975 49.2323C137.945 49.2412 137.916 49.256 137.891 49.2759C137.866 49.2958 137.846 49.3204 137.831 49.3483C137.815 49.3761 137.806 49.4066 137.803 49.4381V54.4737L134.229 49.2745C134.169 49.2235 134.092 49.1966 134.013 49.1989H132.639C132.609 49.1954 132.578 49.1982 132.548 49.2074C132.519 49.2165 132.492 49.2317 132.469 49.252C132.447 49.2722 132.428 49.297 132.416 49.3248C132.403 49.3525 132.397 49.3826 132.397 49.413V57.5327C132.397 57.5631 132.403 57.5932 132.416 57.6209C132.428 57.6487 132.447 57.6735 132.469 57.6937C132.492 57.714 132.519 57.7292 132.548 57.7383C132.578 57.7475 132.609 57.7503 132.639 57.7468H134C134.063 57.7506 134.126 57.7308 134.176 57.6911C134.225 57.6515 134.258 57.595 134.267 57.5327V52.4972L137.828 57.646C137.891 57.7023 137.973 57.7337 138.057 57.7342H139.418C139.45 57.7377 139.482 57.7349 139.513 57.726C139.543 57.7171 139.572 57.7022 139.597 57.6823C139.622 57.6624 139.642 57.6379 139.657 57.61C139.673 57.5822 139.682 57.5517 139.685 57.5202V49.4381ZM148.27 57.6335C148.288 57.6787 148.32 57.7174 148.361 57.7444C148.402 57.7714 148.45 57.7854 148.499 57.7845H149.987C150.026 57.7905 150.066 57.7859 150.102 57.7712C150.138 57.7566 150.17 57.7325 150.193 57.7014C150.217 57.6704 150.232 57.6336 150.236 57.5951C150.24 57.5565 150.233 57.5175 150.216 57.4824L146.948 49.136C146.921 49.0944 146.885 49.0601 146.841 49.0363C146.798 49.0125 146.749 49 146.7 49C146.65 49 146.601 49.0125 146.558 49.0363C146.514 49.0601 146.478 49.0944 146.452 49.136C145.396 51.8426 144.251 54.7884 143.183 57.4824C143.119 57.6335 143.183 57.7845 143.425 57.7845H144.9C144.951 57.7881 145.002 57.7753 145.046 57.7481C145.089 57.721 145.123 57.6808 145.142 57.6335L145.46 56.79H147.927L148.27 57.6335ZM146.401 54.0205C146.527 53.6325 146.628 53.2373 146.706 52.8371C146.779 53.2383 146.881 53.6337 147.011 54.0205L147.431 55.2794H145.968L146.413 54.0205H146.401ZM155.38 56.0095V49.4381C155.371 49.3768 155.338 49.3216 155.288 49.284C155.238 49.2464 155.175 49.2295 155.113 49.2367H153.752C153.722 49.2332 153.692 49.2357 153.662 49.2439C153.633 49.2522 153.606 49.2661 153.582 49.2848C153.559 49.3035 153.539 49.3267 153.525 49.3531C153.51 49.3794 153.501 49.4083 153.498 49.4381V57.5705C153.504 57.6317 153.534 57.6881 153.582 57.728C153.629 57.7678 153.69 57.7881 153.752 57.7845H158.127C158.189 57.7881 158.251 57.7678 158.298 57.728C158.345 57.6881 158.375 57.6317 158.382 57.5705V56.2235C158.38 56.1926 158.372 56.1623 158.359 56.1345C158.345 56.1067 158.325 56.0821 158.301 56.062C158.278 56.042 158.25 56.0269 158.22 56.0179C158.19 56.0089 158.158 56.006 158.127 56.0095H155.38ZM164.652 57.9104C165.012 57.9328 165.372 57.882 165.71 57.7611C166.049 57.6402 166.359 57.4518 166.622 57.2075C166.884 56.9633 167.093 56.6684 167.235 56.341C167.378 56.0137 167.451 55.661 167.45 55.3045C167.46 54.8131 167.325 54.3295 167.06 53.9134C166.796 53.4973 166.414 53.1669 165.962 52.963C165.56 52.7906 165.128 52.6966 164.69 52.686C164.57 52.6894 164.449 52.6688 164.337 52.6254C164.224 52.582 164.122 52.5166 164.035 52.4333C163.949 52.35 163.88 52.2503 163.833 52.1402C163.786 52.0301 163.762 51.9118 163.762 51.7922C163.752 51.6691 163.77 51.5455 163.813 51.4297C163.856 51.3139 163.924 51.2088 164.013 51.1215C164.101 51.0342 164.207 50.9668 164.324 50.9239C164.441 50.8811 164.566 50.8638 164.69 50.8733C164.801 50.8629 164.913 50.8748 165.018 50.9081C165.124 50.9414 165.222 50.9956 165.307 51.0672C165.391 51.1389 165.46 51.2267 165.509 51.3253C165.558 51.4239 165.587 51.5313 165.593 51.6412C165.6 51.7024 165.63 51.7588 165.677 51.7986C165.725 51.8385 165.786 51.8588 165.848 51.8552H167.196C167.228 51.8587 167.26 51.8559 167.29 51.847C167.321 51.8381 167.35 51.8233 167.375 51.8034C167.399 51.7835 167.42 51.7589 167.435 51.731C167.45 51.7032 167.46 51.6726 167.463 51.6412C167.455 51.2934 167.376 50.9507 167.231 50.6338C167.086 50.317 166.878 50.0324 166.619 49.7972C166.36 49.562 166.056 49.3811 165.724 49.2653C165.393 49.1495 165.041 49.1013 164.69 49.1234C164.327 49.1081 163.964 49.1658 163.623 49.2931C163.283 49.4203 162.972 49.6145 162.709 49.8639C162.447 50.1132 162.238 50.4127 162.095 50.7441C161.952 51.0755 161.879 51.432 161.879 51.7922C161.873 52.2781 162.009 52.7553 162.271 53.1663C162.533 53.5773 162.909 53.9045 163.355 54.1086C163.775 54.2944 164.23 54.3929 164.69 54.3981C164.929 54.4152 165.153 54.5159 165.323 54.682C165.493 54.8481 165.598 55.0688 165.619 55.3045C165.616 55.4198 165.589 55.5332 165.54 55.6378C165.491 55.7424 165.421 55.836 165.334 55.9127C165.247 55.9894 165.145 56.0476 165.034 56.0837C164.923 56.1199 164.806 56.1332 164.69 56.1228C164.576 56.135 164.46 56.1237 164.351 56.0898C164.241 56.0559 164.139 56.0001 164.052 55.9257C163.965 55.8513 163.894 55.7601 163.844 55.6576C163.794 55.555 163.766 55.4434 163.762 55.3297C163.762 55.2164 163.635 55.1409 163.507 55.1409H162.147C161.981 55.1409 161.879 55.2164 161.879 55.3297C161.868 55.689 161.935 56.0466 162.075 56.3783C162.215 56.71 162.426 57.0081 162.692 57.2526C162.958 57.4971 163.274 57.6823 163.619 57.7958C163.964 57.9093 164.329 57.9483 164.69 57.9104H164.652ZM181.301 51.0747C181.334 51.0781 181.367 51.0749 181.398 51.0653C181.43 51.0556 181.459 51.0397 181.484 51.0184C181.509 50.9972 181.529 50.9711 181.544 50.9418C181.558 50.9125 181.567 50.8806 181.568 50.8481V49.5137C181.565 49.4822 181.555 49.4516 181.54 49.4238C181.525 49.396 181.504 49.3714 181.48 49.3514C181.455 49.3315 181.426 49.3167 181.396 49.3078C181.365 49.2989 181.333 49.2962 181.301 49.2997H175.87C175.808 49.2961 175.747 49.3163 175.7 49.3562C175.652 49.396 175.622 49.4524 175.616 49.5137V57.5579C175.622 57.6192 175.652 57.6755 175.7 57.7154C175.747 57.7552 175.808 57.7755 175.87 57.7719H177.231C177.263 57.7754 177.295 57.7726 177.326 57.7637C177.356 57.7549 177.385 57.74 177.41 57.7201C177.435 57.7002 177.455 57.6756 177.47 57.6478C177.485 57.62 177.495 57.5894 177.498 57.5579V54.4737H180.627C180.657 54.4772 180.688 54.4743 180.717 54.4652C180.747 54.4561 180.774 54.4409 180.797 54.4206C180.819 54.4004 180.838 54.3756 180.85 54.3478C180.862 54.32 180.869 54.29 180.869 54.2596V52.9252C180.869 52.8119 180.792 52.7238 180.627 52.7238H177.498V51.125L181.301 51.0747ZM189.25 49.1108C188.366 49.0807 187.493 49.3129 186.743 49.7775C185.993 50.2422 185.4 50.9181 185.041 51.7186C184.682 52.519 184.572 53.4074 184.727 54.2697C184.882 55.1321 185.293 55.929 185.909 56.5581C186.524 57.1873 187.316 57.62 188.182 57.8007C189.048 57.9814 189.948 57.9018 190.768 57.5723C191.588 57.2427 192.289 56.6782 192.783 55.9511C193.276 55.224 193.538 54.3675 193.536 53.4917C193.568 52.9199 193.48 52.3478 193.278 51.8113C193.075 51.2748 192.763 50.7855 192.361 50.3741C191.958 49.9627 191.474 49.6381 190.939 49.4207C190.404 49.2033 189.829 49.0978 189.25 49.1108ZM189.25 56.148C188.915 56.1423 188.584 56.0684 188.279 55.9307C187.974 55.7931 187.7 55.5946 187.476 55.3477C187.252 55.1008 187.081 54.8109 186.975 54.4959C186.869 54.1809 186.829 53.8476 186.859 53.5169C186.908 53.0597 187.09 52.6263 187.383 52.2693C187.676 51.9123 188.067 51.6469 188.509 51.5052C188.951 51.3635 189.425 51.3516 189.873 51.4709C190.322 51.5902 190.726 51.8356 191.037 52.1775C191.347 52.5193 191.551 52.943 191.624 53.3971C191.696 53.8513 191.634 54.3165 191.445 54.7366C191.256 55.1566 190.948 55.5135 190.559 55.764C190.169 56.0144 189.715 56.1478 189.25 56.148ZM201.6 57.6335C201.628 57.672 201.664 57.7042 201.706 57.7281C201.748 57.7519 201.794 57.7669 201.842 57.7719H203.343C203.38 57.7753 203.418 57.7689 203.453 57.7532C203.487 57.7375 203.517 57.7131 203.539 57.6825C203.561 57.6519 203.574 57.6162 203.577 57.5788C203.581 57.5415 203.575 57.5039 203.559 57.4698L202.796 55.8332L201.994 54.1086C202.465 53.9423 202.867 53.6284 203.14 53.2148C203.413 52.8011 203.543 52.3104 203.508 51.8174C203.508 51.4455 203.427 51.078 203.272 50.7395C203.116 50.401 202.889 50.0994 202.606 49.8549C202.323 49.6105 201.99 49.4288 201.63 49.3222C201.27 49.2155 200.891 49.1864 200.519 49.2367H197.81C197.78 49.2332 197.749 49.2357 197.72 49.2439C197.691 49.2522 197.664 49.2661 197.64 49.2848C197.617 49.3035 197.597 49.3267 197.582 49.3531C197.568 49.3794 197.559 49.4083 197.556 49.4381V57.5579C197.562 57.6192 197.592 57.6755 197.639 57.7154C197.687 57.7552 197.748 57.7755 197.81 57.7719H199.171C199.236 57.7791 199.302 57.7608 199.354 57.7209C199.407 57.681 199.441 57.6226 199.451 57.5579V54.3604H200.087L201.6 57.6335ZM199.451 50.974H200.519C200.748 50.974 201.626 51.0621 201.626 51.8552C201.626 52.6483 200.824 52.7112 200.519 52.7112H199.451V50.974ZM216.29 49.5137C216.287 49.4822 216.278 49.4516 216.262 49.4238C216.247 49.396 216.227 49.3714 216.202 49.3514C216.177 49.3315 216.148 49.3167 216.118 49.3078C216.087 49.2989 216.055 49.2962 216.023 49.2997H211.266C211.203 49.2958 211.14 49.3156 211.091 49.3553C211.041 49.3949 211.009 49.4514 210.999 49.5137V50.7725C210.999 50.8858 211.114 50.974 211.266 50.974H212.716V57.5831C212.718 57.614 212.726 57.6443 212.74 57.6721C212.753 57.6999 212.773 57.7246 212.797 57.7446C212.821 57.7647 212.848 57.7796 212.878 57.7887C212.908 57.7977 212.94 57.8006 212.971 57.7971H214.332C214.363 57.8006 214.394 57.7977 214.424 57.7887C214.454 57.7796 214.482 57.7647 214.506 57.7446C214.529 57.7246 214.549 57.6999 214.563 57.6721C214.576 57.6443 214.584 57.614 214.586 57.5831V50.974H216.023C216.188 50.974 216.29 50.8858 216.29 50.7725V49.5137ZM223.743 57.6335C223.77 57.6706 223.804 57.702 223.844 57.7258C223.883 57.7495 223.927 57.7652 223.972 57.7719H225.473C225.677 57.7719 225.766 57.6209 225.702 57.4698L224.939 55.8332C224.672 55.2919 224.392 54.6625 224.125 54.1086C224.599 53.9463 225.005 53.6338 225.281 53.2195C225.557 52.8052 225.687 52.3124 225.651 51.8174C225.651 51.4443 225.57 51.0755 225.414 50.736C225.258 50.3965 225.03 50.0943 224.745 49.8496C224.46 49.6049 224.126 49.4236 223.765 49.3178C223.403 49.2121 223.023 49.1844 222.65 49.2367H219.953C219.923 49.2332 219.893 49.2357 219.864 49.2439C219.834 49.2522 219.807 49.2661 219.784 49.2848C219.76 49.3035 219.74 49.3267 219.726 49.3531C219.711 49.3794 219.702 49.4083 219.699 49.4381V57.5579C219.705 57.6192 219.735 57.6755 219.783 57.7154C219.83 57.7552 219.891 57.7755 219.953 57.7719H221.314C221.378 57.7758 221.44 57.756 221.49 57.7163C221.539 57.6767 221.572 57.6202 221.581 57.5579V54.3604H222.217L223.743 57.6335ZM221.581 50.974H222.65C222.879 50.974 223.769 51.0621 223.769 51.8552C223.769 52.6483 222.968 52.7112 222.65 52.7112H221.581V50.974ZM233.829 57.6335C233.848 57.6787 233.879 57.7174 233.92 57.7444C233.961 57.7714 234.009 57.7854 234.058 57.7845H235.546C235.585 57.7905 235.625 57.7859 235.661 57.7712C235.697 57.7566 235.729 57.7325 235.753 57.7014C235.776 57.6704 235.791 57.6336 235.795 57.5951C235.799 57.5565 235.792 57.5175 235.775 57.4824L232.456 49.1486C232.429 49.1069 232.393 49.0726 232.35 49.0488C232.306 49.025 232.257 49.0126 232.208 49.0126C232.158 49.0126 232.109 49.025 232.066 49.0488C232.023 49.0726 231.986 49.1069 231.96 49.1486C230.904 51.8552 229.759 54.801 228.691 57.495C228.627 57.646 228.691 57.7971 228.933 57.7971H230.408C230.459 57.8007 230.51 57.7879 230.554 57.7607C230.597 57.7336 230.631 57.6934 230.65 57.646L230.968 56.8026H233.435L233.779 57.646L233.829 57.6335ZM231.947 54.0205C232.083 53.6346 232.19 53.239 232.265 52.8371C232.338 53.2383 232.44 53.6337 232.57 54.0205L232.99 55.2794H231.515L231.947 54.0205ZM239.337 49.2367C239.276 49.2328 239.217 49.2513 239.17 49.2886C239.123 49.3259 239.092 49.3792 239.082 49.4381V57.5705C239.091 57.6305 239.122 57.6853 239.169 57.7246C239.216 57.7639 239.275 57.7852 239.337 57.7845H240.698C242.834 57.7845 245.721 57.1047 245.721 53.4791C245.721 49.8535 242.783 49.2367 240.698 49.2367H239.337ZM240.965 50.9236H241.194C242.72 50.9236 243.826 51.5279 243.826 53.4414C243.829 53.8002 243.754 54.1556 243.607 54.4835C243.46 54.8115 243.244 55.1045 242.973 55.3429C242.702 55.5814 242.382 55.7597 242.036 55.866C241.69 55.9722 241.324 56.004 240.965 55.9591V50.9488V50.9236ZM249.677 57.5579C249.686 57.618 249.717 57.6727 249.764 57.712C249.81 57.7513 249.87 57.7726 249.931 57.7719H251.292C251.324 57.7754 251.356 57.7726 251.387 57.7637C251.418 57.7549 251.446 57.74 251.471 57.7201C251.496 57.7002 251.516 57.6756 251.532 57.6478C251.547 57.62 251.556 57.5894 251.559 57.5579V49.4381C251.559 49.3374 251.458 49.2367 251.292 49.2367H249.931C249.871 49.2328 249.812 49.2513 249.765 49.2886C249.718 49.3259 249.686 49.3792 249.677 49.4381V57.5579ZM262.981 49.4381C262.978 49.4066 262.968 49.3761 262.953 49.3483C262.938 49.3204 262.917 49.2958 262.892 49.2759C262.868 49.256 262.839 49.2412 262.808 49.2323C262.778 49.2234 262.745 49.2206 262.714 49.2241H261.366C261.334 49.2206 261.303 49.2235 261.273 49.2325C261.243 49.2416 261.215 49.2566 261.192 49.2766C261.168 49.2967 261.148 49.3214 261.134 49.3491C261.121 49.3769 261.113 49.4072 261.111 49.4381V54.4737L257.524 49.2745C257.464 49.2235 257.387 49.1966 257.308 49.1989H255.935C255.904 49.1954 255.873 49.1982 255.844 49.2074C255.815 49.2165 255.788 49.2317 255.765 49.252C255.742 49.2722 255.724 49.297 255.711 49.3248C255.699 49.3525 255.693 49.3826 255.693 49.413V57.5327C255.693 57.5631 255.699 57.5932 255.711 57.6209C255.724 57.6487 255.742 57.6735 255.765 57.6937C255.788 57.714 255.815 57.7292 255.844 57.7383C255.873 57.7475 255.904 57.7503 255.935 57.7468H257.296C257.359 57.7506 257.422 57.7308 257.471 57.6911C257.521 57.6515 257.553 57.595 257.563 57.5327V52.4972L261.137 57.646C261.195 57.7015 261.272 57.733 261.353 57.7342H262.714C262.745 57.7377 262.778 57.7349 262.808 57.726C262.839 57.7171 262.868 57.7022 262.892 57.6823C262.917 57.6624 262.938 57.6379 262.953 57.61C262.968 57.5822 262.978 57.5517 262.981 57.5202V49.4381ZM271.312 52.7238C271.28 52.7221 271.248 52.7266 271.218 52.7371C271.188 52.7476 271.161 52.7638 271.137 52.7849C271.113 52.8059 271.094 52.8314 271.08 52.8598C271.067 52.8882 271.059 52.919 271.057 52.9504V54.1463C271.064 54.2075 271.094 54.264 271.141 54.3038C271.188 54.3437 271.249 54.3639 271.312 54.3604H273.156V55.3297C272.925 55.5795 272.644 55.779 272.331 55.9155C272.018 56.0521 271.679 56.1226 271.337 56.1228C270.993 56.1425 270.648 56.0866 270.328 55.9592C270.009 55.8318 269.721 55.636 269.487 55.3859C269.252 55.1357 269.076 54.8373 268.972 54.512C268.867 54.1867 268.837 53.8426 268.882 53.5043C268.836 53.0035 268.949 52.5008 269.206 52.0665C269.462 51.6322 269.849 51.2879 270.312 51.0815C270.775 50.875 271.292 50.8168 271.79 50.9148C272.289 51.0129 272.744 51.2624 273.092 51.6286C273.141 51.6663 273.202 51.6868 273.264 51.6868C273.326 51.6868 273.386 51.6663 273.436 51.6286L274.428 50.697C274.465 50.6504 274.485 50.5927 274.485 50.5333C274.485 50.474 274.465 50.4163 274.428 50.3697C273.606 49.5706 272.502 49.1191 271.35 49.1108C270.769 49.1055 270.194 49.2161 269.658 49.4362C269.122 49.6562 268.636 49.9811 268.23 50.3913C267.824 50.8016 267.506 51.2887 267.294 51.8236C267.083 52.3585 266.983 52.9302 267 53.5043C266.948 54.0724 267.017 54.6449 267.205 55.1844C267.392 55.7238 267.693 56.2178 268.087 56.634C268.481 57.0502 268.959 57.3791 269.491 57.5991C270.023 57.8191 270.596 57.9252 271.172 57.9104C271.945 57.9493 272.703 57.6872 273.283 57.1803C273.283 57.4069 273.283 57.3565 273.283 57.6083C273.283 57.86 273.397 57.8097 273.55 57.8097H274.746C274.808 57.8133 274.869 57.793 274.916 57.7532C274.964 57.7133 274.994 57.6569 275 57.5957V52.9504C274.998 52.919 274.991 52.8882 274.977 52.8598C274.963 52.8314 274.944 52.8059 274.92 52.7849C274.897 52.7638 274.869 52.7476 274.839 52.7371C274.809 52.7266 274.777 52.7221 274.746 52.7238H271.312Z" fill="#6E7DA4"/>
</svg>
