<svg width="317" height="81" viewBox="0 0 317 81" fill="none" xmlns="http://www.w3.org/2000/svg">
<g filter="url(#filter0_d)">
<path fill-rule="evenodd" clip-rule="evenodd" d="M40.5186 0.000193592C48.1449 0.00410483 55.5783 2.39663 61.775 6.84181C67.9718 11.287 72.6205 17.5615 75.0684 24.7842C77.5163 32.0069 77.6404 39.8149 75.4232 47.1117C73.206 54.4085 68.759 60.8275 62.7066 65.4674C56.6543 70.1072 49.3006 72.7347 41.6783 72.981C34.0561 73.2272 26.5482 71.0797 20.209 66.8402C13.8698 62.6006 9.01772 56.482 6.33426 49.3434C3.65079 42.2049 3.27071 34.4052 5.24737 27.0396H23.3461V38.0312C23.4528 42.639 25.3581 47.0222 28.6547 50.2433C31.9513 53.4645 36.3774 55.2679 40.9865 55.2679C45.5955 55.2679 50.0216 53.4645 53.3182 50.2433C56.6148 47.0222 58.5201 42.639 58.6268 38.0312V37.7287H47.9471V38.0312C47.8807 39.8329 47.1183 41.5386 45.8202 42.7898C44.5221 44.041 42.7894 44.74 40.9865 44.74C39.1835 44.74 37.4508 44.041 36.1527 42.7898C34.8546 41.5386 34.0922 39.8329 34.0258 38.0312V27.0396H45.0457L50.0642 16.3694H33.9974V0.576693C36.149 0.185968 38.3319 -0.00699386 40.5186 0.000193592Z" fill="#52227C"/>
<path fill-rule="evenodd" clip-rule="evenodd" d="M119.294 18.9146C119.272 18.7539 119.19 18.6076 119.064 18.5054C118.939 18.4032 118.78 18.3526 118.619 18.3639H106.649C106.492 18.3562 106.337 18.4088 106.217 18.5109C106.097 18.6131 106.019 18.7573 106 18.9146V22.0396C106.025 22.1922 106.105 22.3302 106.225 22.4271C106.344 22.524 106.495 22.573 106.649 22.5647H110.3V39.4063C110.325 39.5589 110.405 39.6969 110.524 39.7939C110.644 39.8908 110.795 39.9397 110.949 39.9314H114.32C114.477 39.9434 114.633 39.8964 114.757 39.7994C114.882 39.7024 114.966 39.5623 114.994 39.4063V22.5647H118.619C118.776 22.5767 118.932 22.5296 119.057 22.4326C119.181 22.3357 119.266 22.1956 119.294 22.0396V18.9146ZM131.544 39.624C131.611 39.7206 131.698 39.8015 131.799 39.8612C131.9 39.9209 132.013 39.9579 132.129 39.9698H135.806C136.302 39.9698 136.518 39.5984 136.366 39.227L134.496 35.1287C133.847 33.7711 133.134 32.2086 132.498 30.8126C133.66 30.4005 134.655 29.616 135.33 28.5794C136.006 27.5429 136.325 26.3116 136.238 25.0749C136.238 18.6712 130.132 18.6072 128.873 18.6072H122.156C122.081 18.6002 122.006 18.6083 121.935 18.6311C121.863 18.6539 121.797 18.6908 121.74 18.7398C121.683 18.7888 121.637 18.8487 121.603 18.9161C121.57 18.9836 121.55 19.0571 121.545 19.1323V39.4063C121.561 39.5557 121.634 39.6933 121.747 39.7909C121.861 39.8885 122.007 39.9388 122.156 39.9314H125.502C125.659 39.9464 125.817 39.9005 125.942 39.803C126.067 39.7055 126.151 39.5637 126.176 39.4063V31.4017H127.753L131.493 39.5856L131.544 39.624ZM126.227 22.9745H128.873C129.42 22.9745 131.608 23.1922 131.608 25.1774C131.608 27.1625 129.636 27.3418 128.873 27.3418H126.227V22.9745ZM150.486 39.624C150.535 39.7383 150.617 39.8349 150.721 39.9012C150.826 39.9675 150.948 40.0004 151.071 39.9954H154.722C154.814 40.0077 154.907 39.9952 154.992 39.9593C155.078 39.9234 155.152 39.8654 155.207 39.7912C155.263 39.7169 155.298 39.6291 155.309 39.5367C155.32 39.4443 155.306 39.3507 155.269 39.2654L147.23 18.3511C147.17 18.2445 147.083 18.1559 146.978 18.0942C146.873 18.0325 146.753 18 146.632 18C146.51 18 146.391 18.0325 146.286 18.0942C146.181 18.1559 146.094 18.2445 146.034 18.3511C143.426 25.1261 140.602 32.516 137.994 39.2654C137.841 39.624 137.994 39.9954 138.566 39.9954H142.192C142.321 40.0029 142.449 39.9716 142.56 39.9054C142.671 39.8393 142.76 39.7413 142.815 39.624L143.579 37.5108H149.659L150.486 39.624ZM145.881 30.5949C146.202 29.6229 146.457 28.6302 146.644 27.6235C146.83 28.6281 147.077 29.6204 147.382 30.5949L148.425 33.8095H144.8L145.881 30.5949ZM158.195 18.5944C158.041 18.5799 157.886 18.6266 157.765 18.7246C157.644 18.8226 157.566 18.9643 157.546 19.1195V39.4575C157.571 39.6102 157.651 39.7482 157.771 39.8451C157.891 39.942 158.042 39.991 158.195 39.9826H161.592C166.833 39.9826 173.931 38.2792 173.931 29.2245C173.931 19.7983 166.718 18.5944 161.592 18.5944H158.195ZM162.177 22.8336C162.363 22.8143 162.551 22.8143 162.737 22.8336C166.553 22.8336 169.237 24.3449 169.237 29.2373C169.237 35.0518 164.632 35.769 162.177 35.705V22.8976V22.8336ZM191.83 22.9489C191.988 22.9671 192.147 22.9225 192.273 22.8244C192.399 22.7263 192.482 22.5825 192.504 22.4238V19.1195C192.482 18.9608 192.399 18.817 192.273 18.7189C192.147 18.6208 191.988 18.5761 191.83 18.5944H178.486C178.41 18.5874 178.335 18.5954 178.262 18.618C178.19 18.6406 178.123 18.6774 178.065 18.7262C178.007 18.775 177.96 18.8349 177.925 18.9024C177.89 18.9699 177.869 19.0437 177.862 19.1195V39.4575C177.881 39.608 177.956 39.7457 178.072 39.8431C178.187 39.9405 178.335 39.9903 178.486 39.9826H191.83C191.988 39.9977 192.145 39.9518 192.27 39.8542C192.396 39.7567 192.479 39.6149 192.504 39.4575V36.1789C192.482 36.0201 192.399 35.8763 192.273 35.7782C192.147 35.6801 191.988 35.6355 191.83 35.6538H182.467V31.4914H190.176C190.252 31.4966 190.327 31.4868 190.399 31.4626C190.47 31.4383 190.536 31.4001 190.593 31.3501C190.65 31.3001 190.696 31.2394 190.729 31.1713C190.763 31.1032 190.782 31.0292 190.787 30.9535V27.7132C190.784 27.6373 190.766 27.5629 190.733 27.4946C190.7 27.4263 190.653 27.3656 190.596 27.3163C190.538 27.267 190.472 27.2301 190.399 27.2081C190.327 27.186 190.251 27.1792 190.176 27.1881H182.467V22.9489H191.83ZM293.269 19.1067C293.261 19.0291 293.238 18.954 293.201 18.8855C293.164 18.817 293.114 18.7566 293.054 18.7077C292.994 18.6589 292.924 18.6226 292.85 18.6009C292.775 18.5793 292.698 18.5727 292.621 18.5816H289.237C289.12 18.5884 289.005 18.6192 288.9 18.6721C288.795 18.7249 288.702 18.7987 288.626 18.889L281.935 33.4893L274.9 18.9146C274.831 18.8266 274.744 18.7539 274.645 18.701C274.547 18.6481 274.439 18.6162 274.327 18.6072H270.918C270.763 18.5927 270.609 18.6394 270.488 18.7374C270.367 18.8354 270.289 18.9771 270.269 19.1323V39.4063C270.294 39.5589 270.374 39.6969 270.494 39.7939C270.614 39.8908 270.765 39.9397 270.918 39.9314H274.264C274.417 39.9457 274.57 39.8986 274.689 39.8003C274.808 39.7021 274.884 39.5605 274.9 39.4063V28.9043L279.823 38.7787C279.876 38.8795 279.955 38.9643 280.051 39.025C280.147 39.0857 280.257 39.12 280.37 39.1245H283.538C283.652 39.1101 283.762 39.0719 283.86 39.0124C283.959 38.9529 284.044 38.8733 284.11 38.7787L288.626 29.2757V39.4063C288.654 39.5623 288.738 39.7024 288.863 39.7994C288.988 39.8964 289.143 39.9434 289.3 39.9314H292.621C292.775 39.9427 292.927 39.8948 293.048 39.7974C293.168 39.6999 293.247 39.5602 293.269 39.4063V19.1323V19.1067ZM312.262 22.9489C312.42 22.9671 312.579 22.9225 312.705 22.8244C312.831 22.7263 312.914 22.5825 312.936 22.4238V19.1195C312.914 18.9608 312.831 18.817 312.705 18.7189C312.579 18.6208 312.42 18.5761 312.262 18.5944H298.981C298.906 18.5874 298.83 18.5954 298.758 18.618C298.686 18.6406 298.619 18.6774 298.561 18.7262C298.503 18.775 298.455 18.8349 298.42 18.9024C298.385 18.9699 298.364 19.0437 298.358 19.1195V39.4575C298.377 39.608 298.452 39.7457 298.567 39.8431C298.683 39.9405 298.831 39.9903 298.981 39.9826H312.326C312.483 39.9977 312.641 39.9518 312.766 39.8542C312.891 39.7567 312.975 39.6149 313 39.4575V36.1789C312.978 36.0201 312.895 35.8763 312.769 35.7782C312.643 35.6801 312.484 35.6355 312.326 35.6538H302.963V31.4914H310.672C310.747 31.4966 310.823 31.4868 310.894 31.4626C310.966 31.4383 311.032 31.4001 311.088 31.3501C311.145 31.3001 311.191 31.2394 311.225 31.1713C311.258 31.1032 311.278 31.0292 311.283 30.9535V27.7132C311.28 27.6373 311.261 27.5629 311.228 27.4946C311.195 27.4263 311.149 27.3656 311.091 27.3163C311.034 27.267 310.967 27.2301 310.895 27.2081C310.823 27.186 310.747 27.1792 310.672 27.1881H302.963V22.9489H312.262Z" fill="#6E7DA4"/>
<path fill-rule="evenodd" clip-rule="evenodd" d="M223.577 19.7742C223.73 19.382 223.577 19.0405 223.019 19.0405H219.416C219.296 19.0367 219.178 19.0668 219.075 19.1272C218.971 19.1877 218.887 19.276 218.832 19.382L215.026 29.9064C213.758 26.1115 212.552 23.1389 211.22 19.382C211.168 19.2739 211.084 19.1838 210.98 19.123C210.877 19.0622 210.757 19.0335 210.637 19.0405H206.932C206.816 19.0303 206.7 19.0581 206.602 19.1198C206.503 19.1814 206.428 19.2735 206.387 19.382L202.581 29.9064C201.236 26.1115 200.132 23.1389 198.774 19.382C198.774 19.1923 198.47 19.0405 198.191 19.0405H194.6C194.508 19.0336 194.416 19.0494 194.332 19.0867C194.247 19.124 194.174 19.1816 194.117 19.2543C194.061 19.327 194.023 19.4125 194.008 19.5032C193.992 19.594 194 19.687 194.03 19.7742L201.959 40.6205C202.012 40.733 202.097 40.8282 202.202 40.8948C202.308 40.9614 202.43 40.9968 202.555 40.9968C202.68 40.9968 202.802 40.9614 202.908 40.8948C203.014 40.8282 203.098 40.733 203.151 40.6205C204.978 35.6492 206.957 30.6401 208.784 25.6056L214.481 40.6205C214.526 40.7326 214.604 40.8286 214.705 40.8963C214.806 40.9639 214.924 41 215.045 41C215.167 41 215.285 40.9639 215.386 40.8963C215.486 40.8286 215.564 40.7326 215.61 40.6205L223.603 19.7742H223.577ZM226.292 39.5832C226.317 39.7339 226.397 39.8703 226.516 39.966C226.636 40.0617 226.786 40.1101 226.939 40.1018H230.276C230.429 40.116 230.581 40.0695 230.7 39.9724C230.819 39.8753 230.894 39.7355 230.91 39.5832V19.5591C230.904 19.4831 230.882 19.4091 230.847 19.3415C230.811 19.2739 230.763 19.2142 230.703 19.1658C230.644 19.1174 230.576 19.0814 230.502 19.0599C230.429 19.0384 230.352 19.0318 230.276 19.0405H226.939C226.785 19.0262 226.631 19.0723 226.51 19.1691C226.39 19.2659 226.311 19.4058 226.292 19.5591V39.5832ZM246.16 19.7109C246.155 19.6317 246.135 19.5541 246.099 19.4829C246.064 19.4118 246.015 19.3484 245.954 19.2965C245.894 19.2446 245.824 19.2053 245.748 19.1809C245.672 19.1565 245.592 19.1474 245.513 19.1544H233.828C233.67 19.1471 233.514 19.2007 233.394 19.3042C233.273 19.4077 233.197 19.5533 233.181 19.7109V22.7595C233.181 23.0377 233.46 23.2528 233.828 23.2528H237.406V39.5832C237.409 39.6581 237.428 39.7316 237.46 39.7991C237.493 39.8666 237.54 39.9265 237.597 39.9752C237.654 40.0239 237.721 40.0603 237.793 40.0821C237.865 40.1039 237.94 40.1106 238.015 40.1018H241.339C241.413 40.1087 241.488 40.1007 241.559 40.0782C241.631 40.0557 241.697 40.0192 241.753 39.9708C241.81 39.9225 241.857 39.8633 241.89 39.7967C241.923 39.7301 241.943 39.6575 241.948 39.5832V23.2907H245.5C245.906 23.2907 246.147 23.0757 246.147 22.7974V19.7489L246.16 19.7109ZM261.042 19.0026C260.887 18.9882 260.734 19.0343 260.613 19.1312C260.492 19.228 260.414 19.3679 260.395 19.5212V27.25H253.392V19.5212C253.372 19.3679 253.294 19.228 253.173 19.1312C253.053 19.0343 252.899 18.9882 252.744 19.0026H249.408C249.254 18.9882 249.1 19.0343 248.979 19.1312C248.858 19.228 248.78 19.3679 248.761 19.5212V39.5832C248.786 39.7339 248.865 39.8703 248.985 39.966C249.104 40.0617 249.255 40.1101 249.408 40.1018H252.757C252.91 40.1101 253.061 40.0617 253.18 39.966C253.3 39.8703 253.379 39.7339 253.404 39.5832V31.5508H260.369V39.5832C260.394 39.7339 260.474 39.8703 260.593 39.966C260.713 40.0617 260.863 40.1101 261.016 40.1018H264.378C264.528 40.1065 264.674 40.0562 264.788 39.9606C264.903 39.865 264.978 39.7306 265 39.5832V19.5591C264.981 19.4105 264.906 19.2744 264.791 19.1783C264.676 19.0821 264.528 19.0329 264.378 19.0405L261.042 19.0026Z" fill="#472678"/>
<path fill-rule="evenodd" clip-rule="evenodd" d="M111.812 57.9356C112.171 57.9581 112.53 57.9072 112.869 57.7862C113.207 57.6652 113.516 57.4766 113.777 57.2321C114.038 56.9877 114.246 56.6927 114.387 56.3654C114.528 56.0381 114.6 55.6855 114.597 55.3297C114.609 54.8396 114.475 54.357 114.213 53.9411C113.951 53.5251 113.572 53.1939 113.122 52.9882C112.72 52.8158 112.288 52.7218 111.85 52.7112C111.729 52.7164 111.608 52.697 111.495 52.6542C111.381 52.6114 111.278 52.5462 111.191 52.4625C111.104 52.3788 111.036 52.2784 110.989 52.1675C110.943 52.0566 110.92 51.9375 110.922 51.8174C110.912 51.6943 110.93 51.5707 110.973 51.4549C111.016 51.3391 111.084 51.2339 111.173 51.1467C111.261 51.0594 111.367 50.992 111.484 50.9491C111.601 50.9063 111.726 50.889 111.85 50.8984C111.96 50.8899 112.07 50.9031 112.175 50.9372C112.279 50.9713 112.375 51.0257 112.458 51.0972C112.541 51.1688 112.609 51.2559 112.657 51.3536C112.706 51.4514 112.734 51.5577 112.741 51.6663C112.75 51.7286 112.783 51.7851 112.832 51.8247C112.881 51.8643 112.944 51.8842 113.008 51.8804H114.356C114.387 51.8838 114.418 51.881 114.448 51.8719C114.478 51.8629 114.506 51.8479 114.53 51.8278C114.554 51.8078 114.573 51.7831 114.587 51.7553C114.601 51.7276 114.609 51.6973 114.61 51.6663C114.611 51.3169 114.539 50.971 114.398 50.6507C114.257 50.3304 114.05 50.0427 113.79 49.8059C113.531 49.569 113.224 49.3883 112.89 49.2751C112.556 49.162 112.202 49.1189 111.85 49.1486C111.487 49.1333 111.124 49.191 110.783 49.3183C110.443 49.4455 110.132 49.6397 109.869 49.889C109.607 50.1384 109.398 50.4378 109.255 50.7692C109.112 51.1006 109.039 51.4572 109.039 51.8174C109.033 52.3033 109.169 52.7804 109.431 53.1915C109.693 53.6025 110.069 53.9297 110.515 54.1338C110.92 54.332 111.361 54.4476 111.812 54.4737C112.049 54.4911 112.272 54.5922 112.44 54.7586C112.608 54.9249 112.71 55.1455 112.728 55.3801C112.725 55.4942 112.698 55.6065 112.65 55.7102C112.602 55.8139 112.533 55.9068 112.447 55.9833C112.361 56.0598 112.261 56.1183 112.152 56.1553C112.043 56.1923 111.927 56.2069 111.812 56.1983C111.697 56.2124 111.581 56.2026 111.47 56.1694C111.36 56.1363 111.257 56.0805 111.17 56.0058C111.082 55.931 111.012 55.839 110.962 55.7355C110.913 55.6321 110.886 55.5196 110.884 55.4052C110.884 55.2919 110.744 55.2164 110.616 55.2164H109.268C109.103 55.2164 109.001 55.2919 109.001 55.4052C108.99 55.7646 109.057 56.1221 109.197 56.4538C109.337 56.7855 109.548 57.0836 109.814 57.3281C110.08 57.5726 110.396 57.7578 110.741 57.8713C111.086 57.9848 111.451 58.0239 111.812 57.986V57.9356ZM118.426 57.5831C118.435 57.6431 118.466 57.6979 118.513 57.7372C118.559 57.7765 118.619 57.7978 118.68 57.7971H120.041C120.073 57.8006 120.105 57.7978 120.136 57.7889C120.166 57.78 120.195 57.7652 120.22 57.7453C120.245 57.7254 120.265 57.7008 120.28 57.673C120.296 57.6451 120.305 57.6146 120.308 57.5831V49.4381C120.308 49.3374 120.206 49.2367 120.041 49.2367H118.68C118.62 49.2328 118.561 49.2513 118.514 49.2886C118.466 49.3259 118.435 49.3792 118.426 49.4381V57.5579V57.5831ZM128.359 52.749C128.294 52.7454 128.229 52.767 128.18 52.8092C128.13 52.8514 128.098 52.911 128.092 52.9756V54.1715C128.101 54.2338 128.134 54.2903 128.184 54.3299C128.233 54.3696 128.296 54.3894 128.359 54.3855H130.305V55.3549C130.071 55.6011 129.79 55.7982 129.477 55.9345C129.165 56.0708 128.828 56.1434 128.486 56.148C128.141 56.1696 127.795 56.1152 127.474 55.9886C127.152 55.8621 126.863 55.6666 126.627 55.4162C126.391 55.1657 126.214 54.8666 126.109 54.5404C126.004 54.2142 125.973 53.8689 126.019 53.5295C125.991 53.1928 126.034 52.854 126.145 52.5347C126.256 52.2154 126.434 51.9226 126.666 51.6751C126.898 51.4275 127.18 51.2305 127.493 51.0968C127.807 50.9631 128.145 50.8955 128.486 50.8984C129.148 50.9144 129.778 51.1854 130.242 51.6538C130.289 51.6905 130.347 51.7105 130.407 51.7105C130.467 51.7105 130.525 51.6905 130.572 51.6538L131.539 50.7096C131.576 50.663 131.596 50.6053 131.596 50.5459C131.596 50.4866 131.576 50.4289 131.539 50.3823C130.715 49.5854 129.613 49.1344 128.461 49.1234C127.88 49.1164 127.303 49.2258 126.765 49.445C126.228 49.6643 125.741 49.9889 125.333 50.3993C124.925 50.8097 124.606 51.2975 124.394 51.8333C124.182 52.369 124.081 52.9417 124.098 53.5169C124.046 54.086 124.116 54.6597 124.304 55.2C124.492 55.7403 124.794 56.235 125.189 56.6514C125.585 57.0678 126.065 57.3965 126.598 57.6156C127.132 57.8348 127.706 57.9396 128.283 57.923C129.056 57.9605 129.813 57.6987 130.394 57.1929C130.394 57.4195 130.394 57.3691 130.394 57.6209C130.394 57.8726 130.496 57.8223 130.649 57.8223H131.844C131.908 57.8261 131.97 57.8063 132.02 57.7667C132.069 57.7271 132.102 57.6705 132.111 57.6083V52.963C132.105 52.8984 132.073 52.8388 132.024 52.7966C131.974 52.7544 131.91 52.7328 131.844 52.7364L128.359 52.749ZM143.685 49.4381C143.682 49.4066 143.673 49.3761 143.657 49.3483C143.642 49.3204 143.622 49.2958 143.597 49.2759C143.572 49.256 143.543 49.2412 143.513 49.2323C143.482 49.2234 143.45 49.2206 143.418 49.2241H142.07C142.038 49.2206 142.006 49.2234 141.975 49.2323C141.945 49.2412 141.916 49.256 141.891 49.2759C141.866 49.2958 141.846 49.3204 141.831 49.3483C141.815 49.3761 141.806 49.4066 141.803 49.4381V54.4737L138.229 49.2745C138.169 49.2235 138.092 49.1966 138.013 49.1989H136.639C136.609 49.1954 136.578 49.1982 136.548 49.2074C136.519 49.2165 136.492 49.2317 136.469 49.252C136.447 49.2722 136.428 49.297 136.416 49.3248C136.403 49.3525 136.397 49.3826 136.397 49.413V57.5327C136.397 57.5631 136.403 57.5932 136.416 57.6209C136.428 57.6487 136.447 57.6735 136.469 57.6937C136.492 57.714 136.519 57.7292 136.548 57.7383C136.578 57.7475 136.609 57.7503 136.639 57.7468H138C138.063 57.7506 138.126 57.7308 138.176 57.6911C138.225 57.6515 138.258 57.595 138.267 57.5327V52.4972L141.828 57.646C141.891 57.7023 141.973 57.7337 142.057 57.7342H143.418C143.45 57.7377 143.482 57.7349 143.513 57.726C143.543 57.7171 143.572 57.7022 143.597 57.6823C143.622 57.6624 143.642 57.6379 143.657 57.61C143.673 57.5822 143.682 57.5517 143.685 57.5202V49.4381ZM152.27 57.6335C152.288 57.6787 152.32 57.7174 152.361 57.7444C152.402 57.7714 152.45 57.7854 152.499 57.7845H153.987C154.026 57.7905 154.066 57.7859 154.102 57.7712C154.138 57.7566 154.17 57.7325 154.193 57.7014C154.217 57.6704 154.232 57.6336 154.236 57.5951C154.24 57.5565 154.233 57.5175 154.216 57.4824L150.948 49.136C150.921 49.0944 150.885 49.0601 150.841 49.0363C150.798 49.0125 150.749 49 150.7 49C150.65 49 150.601 49.0125 150.558 49.0363C150.514 49.0601 150.478 49.0944 150.452 49.136C149.396 51.8426 148.251 54.7884 147.183 57.4824C147.119 57.6335 147.183 57.7845 147.425 57.7845H148.9C148.951 57.7881 149.002 57.7753 149.046 57.7481C149.089 57.721 149.123 57.6808 149.142 57.6335L149.46 56.79H151.927L152.27 57.6335ZM150.401 54.0205C150.527 53.6325 150.628 53.2373 150.706 52.8371C150.779 53.2383 150.881 53.6337 151.011 54.0205L151.431 55.2794H149.968L150.413 54.0205H150.401ZM159.38 56.0095V49.4381C159.371 49.3768 159.338 49.3216 159.288 49.284C159.238 49.2464 159.175 49.2295 159.113 49.2367H157.752C157.722 49.2332 157.692 49.2357 157.662 49.2439C157.633 49.2522 157.606 49.2661 157.582 49.2848C157.559 49.3035 157.539 49.3267 157.525 49.3531C157.51 49.3794 157.501 49.4083 157.498 49.4381V57.5705C157.504 57.6317 157.534 57.6881 157.582 57.728C157.629 57.7678 157.69 57.7881 157.752 57.7845H162.127C162.189 57.7881 162.251 57.7678 162.298 57.728C162.345 57.6881 162.375 57.6317 162.382 57.5705V56.2235C162.38 56.1926 162.372 56.1623 162.359 56.1345C162.345 56.1067 162.325 56.0821 162.301 56.062C162.278 56.042 162.25 56.0269 162.22 56.0179C162.19 56.0089 162.158 56.006 162.127 56.0095H159.38ZM168.652 57.9104C169.012 57.9328 169.372 57.882 169.71 57.7611C170.049 57.6402 170.359 57.4518 170.622 57.2075C170.884 56.9633 171.093 56.6684 171.235 56.341C171.378 56.0137 171.451 55.661 171.45 55.3045C171.46 54.8131 171.325 54.3295 171.06 53.9134C170.796 53.4973 170.414 53.1669 169.962 52.963C169.56 52.7906 169.128 52.6966 168.69 52.686C168.57 52.6894 168.449 52.6688 168.337 52.6254C168.224 52.582 168.122 52.5166 168.035 52.4333C167.949 52.35 167.88 52.2503 167.833 52.1402C167.786 52.0301 167.762 51.9118 167.762 51.7922C167.752 51.6691 167.77 51.5455 167.813 51.4297C167.856 51.3139 167.924 51.2088 168.013 51.1215C168.101 51.0342 168.207 50.9668 168.324 50.9239C168.441 50.8811 168.566 50.8638 168.69 50.8733C168.801 50.8629 168.913 50.8748 169.018 50.9081C169.124 50.9414 169.222 50.9956 169.307 51.0672C169.391 51.1389 169.46 51.2267 169.509 51.3253C169.558 51.4239 169.587 51.5313 169.593 51.6412C169.6 51.7024 169.63 51.7588 169.677 51.7986C169.725 51.8385 169.786 51.8588 169.848 51.8552H171.196C171.228 51.8587 171.26 51.8559 171.29 51.847C171.321 51.8381 171.35 51.8233 171.375 51.8034C171.399 51.7835 171.42 51.7589 171.435 51.731C171.45 51.7032 171.46 51.6726 171.463 51.6412C171.455 51.2934 171.376 50.9507 171.231 50.6338C171.086 50.317 170.878 50.0324 170.619 49.7972C170.36 49.562 170.056 49.3811 169.724 49.2653C169.393 49.1495 169.041 49.1013 168.69 49.1234C168.327 49.1081 167.964 49.1658 167.623 49.2931C167.283 49.4203 166.972 49.6145 166.709 49.8639C166.447 50.1132 166.238 50.4127 166.095 50.7441C165.952 51.0755 165.879 51.432 165.879 51.7922C165.873 52.2781 166.009 52.7553 166.271 53.1663C166.533 53.5773 166.909 53.9045 167.355 54.1086C167.775 54.2944 168.23 54.3929 168.69 54.3981C168.929 54.4152 169.153 54.5159 169.323 54.682C169.493 54.8481 169.598 55.0688 169.619 55.3045C169.616 55.4198 169.589 55.5332 169.54 55.6378C169.491 55.7424 169.421 55.836 169.334 55.9127C169.247 55.9894 169.145 56.0476 169.034 56.0837C168.923 56.1199 168.806 56.1332 168.69 56.1228C168.576 56.135 168.46 56.1237 168.351 56.0898C168.241 56.0559 168.139 56.0001 168.052 55.9257C167.965 55.8513 167.894 55.7601 167.844 55.6576C167.794 55.555 167.766 55.4434 167.762 55.3297C167.762 55.2164 167.635 55.1409 167.507 55.1409H166.147C165.981 55.1409 165.879 55.2164 165.879 55.3297C165.868 55.689 165.935 56.0466 166.075 56.3783C166.215 56.71 166.426 57.0081 166.692 57.2526C166.958 57.4971 167.274 57.6823 167.619 57.7958C167.964 57.9093 168.329 57.9483 168.69 57.9104H168.652ZM185.301 51.0747C185.334 51.0781 185.367 51.0749 185.398 51.0653C185.43 51.0556 185.459 51.0397 185.484 51.0184C185.509 50.9972 185.529 50.9711 185.544 50.9418C185.558 50.9125 185.567 50.8806 185.568 50.8481V49.5137C185.565 49.4822 185.555 49.4516 185.54 49.4238C185.525 49.396 185.504 49.3714 185.48 49.3514C185.455 49.3315 185.426 49.3167 185.396 49.3078C185.365 49.2989 185.333 49.2962 185.301 49.2997H179.87C179.808 49.2961 179.747 49.3163 179.7 49.3562C179.652 49.396 179.622 49.4524 179.616 49.5137V57.5579C179.622 57.6192 179.652 57.6755 179.7 57.7154C179.747 57.7552 179.808 57.7755 179.87 57.7719H181.231C181.263 57.7754 181.295 57.7726 181.326 57.7637C181.356 57.7549 181.385 57.74 181.41 57.7201C181.435 57.7002 181.455 57.6756 181.47 57.6478C181.485 57.62 181.495 57.5894 181.498 57.5579V54.4737H184.627C184.657 54.4772 184.688 54.4743 184.717 54.4652C184.747 54.4561 184.774 54.4409 184.797 54.4206C184.819 54.4004 184.838 54.3756 184.85 54.3478C184.862 54.32 184.869 54.29 184.869 54.2596V52.9252C184.869 52.8119 184.792 52.7238 184.627 52.7238H181.498V51.125L185.301 51.0747ZM193.25 49.1108C192.366 49.0807 191.493 49.3129 190.743 49.7775C189.993 50.2422 189.4 50.9181 189.041 51.7186C188.682 52.519 188.572 53.4074 188.727 54.2697C188.882 55.1321 189.293 55.929 189.909 56.5581C190.524 57.1873 191.316 57.62 192.182 57.8007C193.048 57.9814 193.948 57.9018 194.768 57.5723C195.588 57.2427 196.289 56.6782 196.783 55.9511C197.276 55.224 197.538 54.3675 197.536 53.4917C197.568 52.9199 197.48 52.3478 197.278 51.8113C197.075 51.2748 196.763 50.7855 196.361 50.3741C195.958 49.9627 195.474 49.6381 194.939 49.4207C194.404 49.2033 193.829 49.0978 193.25 49.1108ZM193.25 56.148C192.915 56.1423 192.584 56.0684 192.279 55.9307C191.974 55.7931 191.7 55.5946 191.476 55.3477C191.252 55.1008 191.081 54.8109 190.975 54.4959C190.869 54.1809 190.829 53.8476 190.859 53.5169C190.908 53.0597 191.09 52.6263 191.383 52.2693C191.676 51.9123 192.067 51.6469 192.509 51.5052C192.951 51.3635 193.425 51.3516 193.873 51.4709C194.322 51.5902 194.726 51.8356 195.037 52.1775C195.347 52.5193 195.551 52.943 195.624 53.3971C195.696 53.8513 195.634 54.3165 195.445 54.7366C195.256 55.1566 194.948 55.5135 194.559 55.764C194.169 56.0144 193.715 56.1478 193.25 56.148ZM205.6 57.6335C205.628 57.672 205.664 57.7042 205.706 57.7281C205.748 57.7519 205.794 57.7669 205.842 57.7719H207.343C207.38 57.7753 207.418 57.7689 207.453 57.7532C207.487 57.7375 207.517 57.7131 207.539 57.6825C207.561 57.6519 207.574 57.6162 207.577 57.5788C207.581 57.5415 207.575 57.5039 207.559 57.4698L206.796 55.8332L205.994 54.1086C206.465 53.9423 206.867 53.6284 207.14 53.2148C207.413 52.8011 207.543 52.3104 207.508 51.8174C207.508 51.4455 207.427 51.078 207.272 50.7395C207.116 50.401 206.889 50.0994 206.606 49.8549C206.323 49.6105 205.99 49.4288 205.63 49.3222C205.27 49.2155 204.891 49.1864 204.519 49.2367H201.81C201.78 49.2332 201.749 49.2357 201.72 49.2439C201.691 49.2522 201.664 49.2661 201.64 49.2848C201.617 49.3035 201.597 49.3267 201.582 49.3531C201.568 49.3794 201.559 49.4083 201.556 49.4381V57.5579C201.562 57.6192 201.592 57.6755 201.639 57.7154C201.687 57.7552 201.748 57.7755 201.81 57.7719H203.171C203.236 57.7791 203.302 57.7608 203.354 57.7209C203.407 57.681 203.441 57.6226 203.451 57.5579V54.3604H204.087L205.6 57.6335ZM203.451 50.974H204.519C204.748 50.974 205.626 51.0621 205.626 51.8552C205.626 52.6483 204.824 52.7112 204.519 52.7112H203.451V50.974ZM220.29 49.5137C220.287 49.4822 220.278 49.4516 220.262 49.4238C220.247 49.396 220.227 49.3714 220.202 49.3514C220.177 49.3315 220.148 49.3167 220.118 49.3078C220.087 49.2989 220.055 49.2962 220.023 49.2997H215.266C215.203 49.2958 215.14 49.3156 215.091 49.3553C215.041 49.3949 215.009 49.4514 214.999 49.5137V50.7725C214.999 50.8858 215.114 50.974 215.266 50.974H216.716V57.5831C216.718 57.614 216.726 57.6443 216.74 57.6721C216.753 57.6999 216.773 57.7246 216.797 57.7446C216.821 57.7647 216.848 57.7796 216.878 57.7887C216.908 57.7977 216.94 57.8006 216.971 57.7971H218.332C218.363 57.8006 218.394 57.7977 218.424 57.7887C218.454 57.7796 218.482 57.7647 218.506 57.7446C218.529 57.7246 218.549 57.6999 218.563 57.6721C218.576 57.6443 218.584 57.614 218.586 57.5831V50.974H220.023C220.188 50.974 220.29 50.8858 220.29 50.7725V49.5137ZM227.743 57.6335C227.77 57.6706 227.804 57.702 227.844 57.7258C227.883 57.7495 227.927 57.7652 227.972 57.7719H229.473C229.677 57.7719 229.766 57.6209 229.702 57.4698L228.939 55.8332C228.672 55.2919 228.392 54.6625 228.125 54.1086C228.599 53.9463 229.005 53.6338 229.281 53.2195C229.557 52.8052 229.687 52.3124 229.651 51.8174C229.651 51.4443 229.57 51.0755 229.414 50.736C229.258 50.3965 229.03 50.0943 228.745 49.8496C228.46 49.6049 228.126 49.4236 227.765 49.3178C227.403 49.2121 227.023 49.1844 226.65 49.2367H223.953C223.923 49.2332 223.893 49.2357 223.864 49.2439C223.834 49.2522 223.807 49.2661 223.784 49.2848C223.76 49.3035 223.74 49.3267 223.726 49.3531C223.711 49.3794 223.702 49.4083 223.699 49.4381V57.5579C223.705 57.6192 223.735 57.6755 223.783 57.7154C223.83 57.7552 223.891 57.7755 223.953 57.7719H225.314C225.378 57.7758 225.44 57.756 225.49 57.7163C225.539 57.6767 225.572 57.6202 225.581 57.5579V54.3604H226.217L227.743 57.6335ZM225.581 50.974H226.65C226.879 50.974 227.769 51.0621 227.769 51.8552C227.769 52.6483 226.968 52.7112 226.65 52.7112H225.581V50.974ZM237.829 57.6335C237.848 57.6787 237.879 57.7174 237.92 57.7444C237.961 57.7714 238.009 57.7854 238.058 57.7845H239.546C239.585 57.7905 239.625 57.7859 239.661 57.7712C239.697 57.7566 239.729 57.7325 239.753 57.7014C239.776 57.6704 239.791 57.6336 239.795 57.5951C239.799 57.5565 239.792 57.5175 239.775 57.4824L236.456 49.1486C236.429 49.1069 236.393 49.0726 236.35 49.0488C236.306 49.025 236.257 49.0126 236.208 49.0126C236.158 49.0126 236.109 49.025 236.066 49.0488C236.023 49.0726 235.986 49.1069 235.96 49.1486C234.904 51.8552 233.759 54.801 232.691 57.495C232.627 57.646 232.691 57.7971 232.933 57.7971H234.408C234.459 57.8007 234.51 57.7879 234.554 57.7607C234.597 57.7336 234.631 57.6934 234.65 57.646L234.968 56.8026H237.435L237.779 57.646L237.829 57.6335ZM235.947 54.0205C236.083 53.6346 236.19 53.239 236.265 52.8371C236.338 53.2383 236.44 53.6337 236.57 54.0205L236.99 55.2794H235.515L235.947 54.0205ZM243.337 49.2367C243.276 49.2328 243.217 49.2513 243.17 49.2886C243.123 49.3259 243.092 49.3792 243.082 49.4381V57.5705C243.091 57.6305 243.122 57.6853 243.169 57.7246C243.216 57.7639 243.275 57.7852 243.337 57.7845H244.698C246.834 57.7845 249.721 57.1047 249.721 53.4791C249.721 49.8535 246.783 49.2367 244.698 49.2367H243.337ZM244.965 50.9236H245.194C246.72 50.9236 247.826 51.5279 247.826 53.4414C247.829 53.8002 247.754 54.1556 247.607 54.4835C247.46 54.8115 247.244 55.1045 246.973 55.3429C246.702 55.5814 246.382 55.7597 246.036 55.866C245.69 55.9722 245.324 56.004 244.965 55.9591V50.9488V50.9236ZM253.677 57.5579C253.686 57.618 253.717 57.6727 253.764 57.712C253.81 57.7513 253.87 57.7726 253.931 57.7719H255.292C255.324 57.7754 255.356 57.7726 255.387 57.7637C255.418 57.7549 255.446 57.74 255.471 57.7201C255.496 57.7002 255.516 57.6756 255.532 57.6478C255.547 57.62 255.556 57.5894 255.559 57.5579V49.4381C255.559 49.3374 255.458 49.2367 255.292 49.2367H253.931C253.871 49.2328 253.812 49.2513 253.765 49.2886C253.718 49.3259 253.686 49.3792 253.677 49.4381V57.5579ZM266.981 49.4381C266.978 49.4066 266.968 49.3761 266.953 49.3483C266.938 49.3204 266.917 49.2958 266.892 49.2759C266.868 49.256 266.839 49.2412 266.808 49.2323C266.778 49.2234 266.745 49.2206 266.714 49.2241H265.366C265.334 49.2206 265.303 49.2235 265.273 49.2325C265.243 49.2416 265.215 49.2566 265.192 49.2766C265.168 49.2967 265.148 49.3214 265.134 49.3491C265.121 49.3769 265.113 49.4072 265.111 49.4381V54.4737L261.524 49.2745C261.464 49.2235 261.387 49.1966 261.308 49.1989H259.935C259.904 49.1954 259.873 49.1982 259.844 49.2074C259.815 49.2165 259.788 49.2317 259.765 49.252C259.742 49.2722 259.724 49.297 259.711 49.3248C259.699 49.3525 259.693 49.3826 259.693 49.413V57.5327C259.693 57.5631 259.699 57.5932 259.711 57.6209C259.724 57.6487 259.742 57.6735 259.765 57.6937C259.788 57.714 259.815 57.7292 259.844 57.7383C259.873 57.7475 259.904 57.7503 259.935 57.7468H261.296C261.359 57.7506 261.422 57.7308 261.471 57.6911C261.521 57.6515 261.553 57.595 261.563 57.5327V52.4972L265.137 57.646C265.195 57.7015 265.272 57.733 265.353 57.7342H266.714C266.745 57.7377 266.778 57.7349 266.808 57.726C266.839 57.7171 266.868 57.7022 266.892 57.6823C266.917 57.6624 266.938 57.6379 266.953 57.61C266.968 57.5822 266.978 57.5517 266.981 57.5202V49.4381ZM275.312 52.7238C275.28 52.7221 275.248 52.7266 275.218 52.7371C275.188 52.7476 275.161 52.7638 275.137 52.7849C275.113 52.8059 275.094 52.8314 275.08 52.8598C275.067 52.8882 275.059 52.919 275.057 52.9504V54.1463C275.064 54.2075 275.094 54.264 275.141 54.3038C275.188 54.3437 275.249 54.3639 275.312 54.3604H277.156V55.3297C276.925 55.5795 276.644 55.779 276.331 55.9155C276.018 56.0521 275.679 56.1226 275.337 56.1228C274.993 56.1425 274.648 56.0866 274.328 55.9592C274.009 55.8318 273.721 55.636 273.487 55.3859C273.252 55.1357 273.076 54.8373 272.972 54.512C272.867 54.1867 272.837 53.8426 272.882 53.5043C272.836 53.0035 272.949 52.5008 273.206 52.0665C273.462 51.6322 273.849 51.2879 274.312 51.0815C274.775 50.875 275.292 50.8168 275.79 50.9148C276.289 51.0129 276.744 51.2624 277.092 51.6286C277.141 51.6663 277.202 51.6868 277.264 51.6868C277.326 51.6868 277.386 51.6663 277.436 51.6286L278.428 50.697C278.465 50.6504 278.485 50.5927 278.485 50.5333C278.485 50.474 278.465 50.4163 278.428 50.3697C277.606 49.5706 276.502 49.1191 275.35 49.1108C274.769 49.1055 274.194 49.2161 273.658 49.4362C273.122 49.6562 272.636 49.9811 272.23 50.3913C271.824 50.8016 271.506 51.2887 271.294 51.8236C271.083 52.3585 270.983 52.9302 271 53.5043C270.948 54.0724 271.017 54.6449 271.205 55.1844C271.392 55.7238 271.693 56.2178 272.087 56.634C272.481 57.0502 272.959 57.3791 273.491 57.5991C274.023 57.8191 274.596 57.9252 275.172 57.9104C275.945 57.9493 276.703 57.6872 277.283 57.1803C277.283 57.4069 277.283 57.3565 277.283 57.6083C277.283 57.86 277.397 57.8097 277.55 57.8097H278.746C278.808 57.8133 278.869 57.793 278.916 57.7532C278.964 57.7133 278.994 57.6569 279 57.5957V52.9504C278.998 52.919 278.991 52.8882 278.977 52.8598C278.963 52.8314 278.944 52.8059 278.92 52.7849C278.897 52.7638 278.869 52.7476 278.839 52.7371C278.809 52.7266 278.777 52.7221 278.746 52.7238H275.312Z" fill="#6E7DA4"/>
</g>
<defs>
<filter id="filter0_d" x="0" y="0" width="317" height="81" filterUnits="userSpaceOnUse" color-interpolation-filters="sRGB">
<feFlood flood-opacity="0" result="BackgroundImageFix"/>
<feColorMatrix in="SourceAlpha" type="matrix" values="0 0 0 0 0 0 0 0 0 0 0 0 0 0 0 0 0 0 127 0"/>
<feOffset dy="4"/>
<feGaussianBlur stdDeviation="2"/>
<feColorMatrix type="matrix" values="0 0 0 0 0 0 0 0 0 0 0 0 0 0 0 0 0 0 0.25 0"/>
<feBlend mode="normal" in2="BackgroundImageFix" result="effect1_dropShadow"/>
<feBlend mode="normal" in="SourceGraphic" in2="effect1_dropShadow" result="shape"/>
</filter>
</defs>
</svg>
